<?xml version="1.0" standalone="no"?>
<!DOCTYPE svg PUBLIC "-//W3C//DTD SVG 20010904//EN"
 "http://www.w3.org/TR/2001/REC-SVG-20010904/DTD/svg10.dtd">
<svg version="1.0" xmlns="http://www.w3.org/2000/svg"
 width="190.000000pt" height="190.000000pt" viewBox="0 0 190.000000 190.000000"
 preserveAspectRatio="xMidYMid meet">
<metadata>
Created by potrace 1.14, written by Peter Selinger 2001-2017
</metadata>
<g transform="translate(0.000000,190.000000) scale(0.100000,-0.100000)"
fill="#000000" stroke="none">
<path d="M551 1445 c-123 -35 -254 -133 -314 -236 -123 -211 -90 -466 82 -638
153 -153 379 -193 581 -104 44 19 46 19 86 1 208 -91 432 -50 589 107 288 287
151 769 -248 872 -88 22 -210 13 -302 -22 -38 -14 -74 -26 -80 -26 -5 0 -41
12 -80 26 -88 34 -231 43 -314 20z m253 -50 c101 -26 101 -25 32 -97 -196
-205 -194 -517 3 -720 66 -67 66 -67 -35 -93 -271 -70 -539 105 -586 383 -39
231 112 464 341 528 64 17 176 17 245 -1z m522 1 c168 -44 295 -173 339 -343
66 -252 -100 -519 -356 -574 -68 -15 -201 -6 -259 17 -25 9 -47 19 -49 20 -2
2 24 33 57 68 98 105 141 215 142 356 0 138 -46 253 -143 356 -33 36 -58 66
-56 68 6 5 92 35 114 39 45 10 163 6 211 -7z m-334 -97 c38 -31 108 -123 108
-144 0 -5 -38 28 -85 75 -47 47 -85 88 -85 92 0 16 23 7 62 -23z m158 -319 l0
-45 -152 152 -151 151 17 27 18 28 134 -134 c132 -132 134 -134 134 -179z m-7
-140 c-3 -14 -8 -29 -11 -34 -2 -4 -82 70 -178 165 l-173 172 16 30 15 30 169
-169 c149 -149 168 -171 162 -194z m-44 -123 c-7 -15 -15 -27 -18 -27 -4 0
-81 75 -172 168 l-166 167 9 34 9 34 175 -174 c171 -171 175 -176 163 -202z
m-59 -78 c0 -3 -7 -14 -14 -25 -14 -18 -22 -12 -150 116 -135 134 -136 135
-136 180 l0 45 150 -155 c82 -85 149 -158 150 -161z m-80 -81 c0 -28 -90 46
-142 116 -51 71 -29 62 57 -24 47 -47 85 -88 85 -92z"/>
</g>
</svg>
